<?xml version="1.0" encoding="UTF-8" standalone="no"?>
<svg
   width="115.40798mm"
   height="14.174719mm"
   viewBox="0 0 115.40798 14.174719"
   version="1.1"
   id="svg1"
   xml:space="preserve"
   inkscape:version="1.3.2 (091e20e, 2023-11-25, custom)"
   sodipodi:docname="logo--black.svg"
   xmlns:inkscape="http://www.inkscape.org/namespaces/inkscape"
   xmlns:sodipodi="http://sodipodi.sourceforge.net/DTD/sodipodi-0.dtd"
   xmlns="http://www.w3.org/2000/svg"
   xmlns:svg="http://www.w3.org/2000/svg">
    <sodipodi:namedview
   id="namedview1"
   pagecolor="#ffffff"
   bordercolor="#000000"
   borderopacity="0.25"
   inkscape:showpageshadow="2"
   inkscape:pageopacity="0.0"
   inkscape:pagecheckerboard="0"
   inkscape:deskcolor="#d1d1d1"
   inkscape:document-units="mm"
   inkscape:zoom="2.8044052"
   inkscape:cx="162.95791"
   inkscape:cy="30.131166"
   inkscape:window-width="1920"
   inkscape:window-height="1001"
   inkscape:window-x="-9"
   inkscape:window-y="-9"
   inkscape:window-maximized="1"
   inkscape:current-layer="g2" />
    <defs
   id="defs1" />
    <g
   inkscape:label="Слой 1"
   inkscape:groupmode="layer"
   id="layer1"
   transform="translate(-23.801751,-29.532148)" />
    <g
   style="fill:#e0e1dd"
   id="g2"
   transform="matrix(0.01683515,0,0,0.01683515,101.26646,15.521531)">
        <path
   d="M 440,-183 V -457 L 200,-596 v 274 z m 80,0 240,-139 v -274 l -240,139 z m -80,92 -280,-161 q -19,-11 -29.5,-29 -10.5,-18 -10.5,-40 v -318 q 0,-22 10.5,-40 10.5,-18 29.5,-29 l 280,-161 q 19,-11 40,-11 21,0 40,11 l 280,161 q 19,11 29.5,29 10.5,18 10.5,40 v 318 q 0,22 -10.5,40 -10.5,18 -29.5,29 L 520,-91 q -19,11 -40,11 -21,0 -40,-11 z m 200,-528 77,-44 -237,-137 -78,45 z m -160,93 78,-45 -237,-137 -78,45 z"
   id="path1"
   style="fill:#0d1b2a;fill-opacity:1" />
        <text
   xml:space="preserve"
   style="font-style:normal;font-variant:normal;font-weight:bold;font-stretch:normal;font-size:1005.83px;line-height:0;font-family:Arial;-inkscape-font-specification:'Arial Bold';letter-spacing:-47.1484px;word-spacing:0px;fill:#0d1b2a;fill-opacity:1;fill-rule:nonzero;stroke-width:15.7408"
   x="-8987.0459"
   y="-150.47124"
   id="text2">             <tspan
   sodipodi:role="line"
   id="tspan2"
   style="line-height:0;text-align:center;letter-spacing:-47.1484px;word-spacing:0px;baseline-shift:baseline;text-anchor:middle;fill:#0d1b2a;fill-opacity:1;stroke-width:15.7409"
   x="-8987.0459"
   y="-150.47124"
   dx="0">Stock Tracker</tspan>        </text>
    </g>
    <g
   inkscape:groupmode="layer"
   id="layer2"
   inkscape:label="StockTracker"
   transform="translate(-23.801751,-29.532148)" />
</svg>
